<svg width="202" height="58" viewBox="0 0 202 58" fill="none" xmlns="http://www.w3.org/2000/svg">
<g clip-path="url(#clip0_2946_5119)">
<path d="M27.8844 3.46487C29.7819 0.178379 34.5255 0.178378 36.423 3.46486L63.6396 50.6054C65.537 53.8919 63.1652 58 59.3703 58H4.93708C1.14218 58 -1.22964 53.8919 0.667813 50.6054L27.8844 3.46487Z" fill="#FD6027"/>
<path d="M61.9409 35.4862C63.1408 37.5645 66.1405 37.5645 67.3404 35.4862L84.5513 5.67598C85.7512 3.59771 84.2514 0.999864 81.8516 0.999864H47.4297C45.0299 0.999864 43.53 3.59771 44.7299 5.67598L61.9409 35.4862Z" fill="#FD6027"/>
<path d="M94.0776 45L106.366 11.4H112.414L124.702 45H118.942L116.158 37.032H102.574L99.7416 45H94.0776ZM104.158 32.664H114.622L109.342 17.784L104.158 32.664ZM135.44 45C133.008 45 131.152 44.408 129.872 43.224C128.592 42.04 127.952 40.152 127.952 37.56V25.752H124.544V21.192H127.952V15.432H133.424V21.192H139.232V25.752H133.424V37.608C133.424 38.696 133.68 39.448 134.192 39.864C134.704 40.248 135.472 40.44 136.496 40.44H139.232V45H135.44ZM143.518 45V11.4H148.942V45H143.518ZM161.553 45.576C160.081 45.576 158.705 45.304 157.425 44.76C156.177 44.184 155.169 43.352 154.401 42.264C153.665 41.176 153.297 39.88 153.297 38.376C153.297 36.584 153.745 35.128 154.641 34.008C155.537 32.888 156.753 32.072 158.289 31.56C159.825 31.016 161.521 30.744 163.377 30.744H169.329C169.329 29.464 169.121 28.424 168.705 27.624C168.289 26.792 167.713 26.184 166.977 25.8C166.241 25.384 165.377 25.176 164.385 25.176C163.105 25.176 161.985 25.464 161.025 26.04C160.065 26.616 159.473 27.56 159.249 28.872H153.777C153.937 27.144 154.513 25.672 155.505 24.456C156.529 23.208 157.825 22.264 159.393 21.624C160.961 20.952 162.641 20.616 164.433 20.616C166.737 20.616 168.641 21.048 170.145 21.912C171.681 22.744 172.833 23.912 173.601 25.416C174.401 26.92 174.801 28.664 174.801 30.648V37.896C174.833 38.76 175.041 39.384 175.425 39.768C175.841 40.152 176.481 40.36 177.345 40.392V45C176.001 45 174.849 44.856 173.889 44.568C172.929 44.28 172.129 43.848 171.489 43.272C170.881 42.696 170.385 41.944 170.001 41.016C169.233 42.296 168.097 43.384 166.593 44.28C165.121 45.144 163.441 45.576 161.553 45.576ZM162.945 41.16C164.193 41.16 165.281 40.872 166.209 40.296C167.169 39.688 167.921 38.888 168.465 37.896C169.041 36.872 169.329 35.752 169.329 34.536V34.392H163.761C162.929 34.392 162.129 34.504 161.361 34.728C160.593 34.952 159.985 35.32 159.537 35.832C159.089 36.312 158.865 36.984 158.865 37.848C158.865 39 159.265 39.848 160.065 40.392C160.865 40.904 161.825 41.16 162.945 41.16ZM190.242 45.576C188.418 45.576 186.722 45.256 185.154 44.616C183.618 43.944 182.354 43 181.362 41.784C180.402 40.568 179.858 39.144 179.73 37.512H185.202C185.394 38.632 185.938 39.544 186.834 40.248C187.762 40.92 188.882 41.256 190.194 41.256C191.378 41.256 192.354 41 193.122 40.488C193.922 39.976 194.322 39.272 194.322 38.376C194.322 37.608 194.05 37.016 193.506 36.6C192.962 36.152 192.29 35.816 191.49 35.592C190.69 35.336 189.858 35.112 188.994 34.92C187.49 34.568 186.082 34.136 184.77 33.624C183.49 33.112 182.45 32.392 181.65 31.464C180.85 30.536 180.45 29.32 180.45 27.816C180.45 26.312 180.866 25.032 181.698 23.976C182.53 22.888 183.634 22.056 185.01 21.48C186.418 20.904 187.986 20.616 189.714 20.616C192.338 20.616 194.514 21.272 196.242 22.584C198.002 23.896 198.978 25.816 199.17 28.344H193.986C193.858 27.256 193.394 26.424 192.594 25.848C191.826 25.272 190.818 24.984 189.57 24.984C188.482 24.984 187.57 25.192 186.834 25.608C186.13 26.024 185.778 26.696 185.778 27.624C185.778 28.264 186.034 28.792 186.546 29.208C187.09 29.624 187.762 29.976 188.562 30.264C189.394 30.52 190.21 30.744 191.01 30.936C192.642 31.32 194.098 31.768 195.378 32.28C196.658 32.792 197.666 33.512 198.402 34.44C199.17 35.368 199.57 36.632 199.602 38.232C199.602 39.768 199.186 41.08 198.354 42.168C197.522 43.256 196.402 44.104 194.994 44.712C193.586 45.288 192.002 45.576 190.242 45.576Z" fill="black"/>
</g>
<defs>
<clipPath id="clip0_2946_5119">
<rect width="201.973" height="58" fill="white"/>
</clipPath>
</defs>
</svg>
